<?xml version="1.0" encoding="UTF-8"?>
<svg id="atom" xmlns="http://www.w3.org/2000/svg" viewBox="0 0 383.16 383.16">
  <defs>
    <style>
      .cls-1 {
        fill: #de4231;
      }

      .cls-1, .cls-2, .cls-3 {
        stroke-width: 0px;
      }

      .cls-2 {
        fill: #414042;
      }

      .cls-3 {
        fill: #dd4231;
      }
    </style>
  </defs>
  <g id="atom-2" data-name="atom">
    <path class="cls-1" d="m383.16,191.58c0-21.88-22.42-41.29-58.84-54.98,16.07-35.43,18.2-65.02,2.73-80.48-15.47-15.47-45.05-13.34-80.49,2.73C232.87,22.42,213.46,0,191.58,0s-41.29,22.42-54.98,58.84c-35.43-16.07-65.02-18.2-80.49-2.73-15.47,15.47-13.34,45.05,2.73,80.48C22.42,150.29,0,169.7,0,191.58s22.42,41.29,58.84,54.98c-16.07,35.43-18.2,65.02-2.73,80.49,15.47,15.47,45.05,13.34,80.49-2.73,13.69,36.42,33.11,58.84,54.98,58.84s41.29-22.42,54.98-58.84c35.43,16.07,65.02,18.2,80.49,2.73,15.47-15.47,13.34-45.05-2.73-80.49,36.42-13.69,58.84-33.11,58.84-54.98Zm-60.08-131.5c13.8,13.8,11.21,41.36-4.05,74.6-16.58-5.77-35.8-10.4-56.94-13.61-3.21-21.14-7.84-40.36-13.61-56.94,33.24-15.26,60.81-17.85,74.6-4.05Zm-61.47,131.5c0,9.75-.29,19.32-.83,28.66-6.22,7-12.79,13.97-19.68,20.86-6.89,6.89-13.86,13.46-20.86,19.68-9.35.55-18.92.83-28.66.83s-19.32-.29-28.66-.83c-7-6.22-13.97-12.79-20.86-19.68-6.89-6.89-13.46-13.86-19.68-20.86-.55-9.35-.83-18.92-.83-28.66s.29-19.32.83-28.66c6.22-7,12.79-13.97,19.68-20.86,6.89-6.89,13.86-13.46,20.86-19.68,9.35-.55,18.92-.83,28.66-.83s19.32.29,28.67.83c7,6.22,13.97,12.79,20.86,19.68,6.89,6.89,13.46,13.86,19.68,20.86.55,9.35.83,18.92.83,28.66Zm-16.55-53.49c-5.23-5.23-10.5-10.25-15.78-15.1,9.57.75,18.85,1.78,27.82,3.05,1.28,8.97,2.31,18.26,3.05,27.82-4.84-5.28-9.87-10.55-15.1-15.78Zm-22.55-21.2c-8.75-7.73-17.51-14.91-26.2-21.5,16.25-11.84,32.17-21.57,47.06-28.86,5.37,15.68,9.75,33.82,12.87,53.68-10.8-1.48-22.07-2.61-33.73-3.32Zm-9.11-.47c-7.16-.31-14.43-.48-21.83-.48s-14.67.17-21.83.48c7.29-6.24,14.59-12.07,21.83-17.51,7.25,5.44,14.54,11.28,21.83,17.51Zm-52.77.47c-11.65.72-22.92,1.84-33.73,3.32,3.12-19.86,7.49-37.99,12.87-53.68,14.89,7.29,30.81,17.02,47.06,28.86-8.69,6.59-17.45,13.77-26.2,21.5Zm-6.77,6.11c-5.28,4.84-10.55,9.87-15.78,15.1-5.23,5.23-10.25,10.5-15.1,15.78.74-9.57,1.78-18.85,3.05-27.82,8.97-1.28,18.26-2.31,27.82-3.05Zm-36.98,37.65c-7.73,8.75-14.91,17.51-21.5,26.2-11.84-16.25-21.57-32.17-28.86-47.06,15.68-5.37,33.82-9.75,53.68-12.87-1.48,10.8-2.61,22.07-3.32,33.73Zm-.47,9.11c-.31,7.16-.48,14.43-.48,21.83s.17,14.67.48,21.83c-6.24-7.29-12.07-14.59-17.51-21.83,5.44-7.25,11.28-14.54,17.51-21.83Zm.47,52.77c.72,11.65,1.84,22.92,3.32,33.73-19.86-3.12-37.99-7.49-53.68-12.87,7.29-14.89,17.02-30.81,28.86-47.06,6.59,8.69,13.76,17.45,21.5,26.2Zm6.11,6.77c4.84,5.28,9.87,10.55,15.1,15.78,5.23,5.23,10.5,10.25,15.78,15.1-9.57-.74-18.85-1.78-27.82-3.05-1.28-8.97-2.31-18.26-3.05-27.82Zm37.65,36.98c8.75,7.73,17.51,14.91,26.2,21.5-16.25,11.84-32.17,21.57-47.06,28.86-5.37-15.68-9.75-33.82-12.87-53.68,10.8,1.48,22.07,2.61,33.73,3.32Zm9.11.47c7.16.31,14.43.48,21.83.48s14.67-.17,21.83-.48c-7.29,6.24-14.59,12.07-21.83,17.51-7.25-5.44-14.54-11.28-21.83-17.51Zm52.77-.47c11.65-.72,22.92-1.84,33.73-3.32-3.12,19.86-7.49,37.99-12.87,53.68-14.89-7.29-30.81-17.02-47.06-28.86,8.69-6.59,17.45-13.77,26.2-21.5Zm6.77-6.11c5.28-4.84,10.55-9.87,15.78-15.1,5.23-5.23,10.25-10.5,15.1-15.78-.74,9.57-1.78,18.85-3.05,27.82-8.97,1.28-18.26,2.31-27.82,3.05Zm36.98-37.65c7.73-8.75,14.91-17.51,21.5-26.2,11.84,16.25,21.57,32.17,28.86,47.06-15.68,5.38-33.82,9.75-53.68,12.87,1.48-10.8,2.61-22.07,3.32-33.73Zm.47-9.11c.31-7.16.48-14.43.48-21.83s-.17-14.67-.48-21.83c6.24,7.29,12.07,14.59,17.51,21.83-5.44,7.25-11.28,14.54-17.51,21.83Zm-.47-52.77c-.72-11.65-1.84-22.92-3.32-33.73,19.86,3.12,37.99,7.49,53.68,12.87-7.29,14.89-17.02,30.81-28.86,47.06-6.59-8.69-13.77-17.45-21.5-26.2ZM191.58,5.61c19.51,0,37.18,21.32,49.89,55.62-15.81,7.64-32.67,17.96-49.89,30.64-17.22-12.68-34.08-22.99-49.89-30.64,12.71-34.3,30.38-55.62,49.89-55.62ZM60.08,60.08c13.8-13.8,41.36-11.21,74.6,4.05-5.77,16.58-10.4,35.8-13.61,56.94-21.14,3.21-40.36,7.84-56.94,13.61-15.26-33.24-17.85-60.81-4.05-74.6ZM5.61,191.58c0-19.51,21.32-37.18,55.62-49.89,7.64,15.81,17.96,32.67,30.64,49.89-12.68,17.22-22.99,34.08-30.64,49.89-34.3-12.71-55.62-30.38-55.62-49.89Zm54.47,131.5c-13.8-13.8-11.21-41.36,4.05-74.6,16.58,5.77,35.8,10.4,56.94,13.61,3.21,21.14,7.84,40.36,13.61,56.94-33.24,15.26-60.81,17.85-74.6,4.05Zm131.5,54.47c-19.51,0-37.18-21.32-49.89-55.62,15.81-7.64,32.67-17.96,49.89-30.64,17.22,12.68,34.08,22.99,49.89,30.64-12.71,34.3-30.38,55.62-49.89,55.62Zm131.5-54.47c-13.8,13.8-41.36,11.21-74.6-4.05,5.77-16.58,10.4-35.8,13.61-56.94,21.14-3.21,40.36-7.84,56.94-13.61,15.26,33.24,17.85,60.81,4.05,74.6Zm-1.15-81.61c-7.64-15.81-17.96-32.67-30.64-49.89,12.68-17.22,22.99-34.08,30.64-49.89,34.3,12.71,55.62,30.38,55.62,49.89s-21.32,37.18-55.62,49.89Z"/>
    <circle class="cls-3" cx="190.76" cy="192.66" r="39.25" transform="translate(-80.36 191.31) rotate(-45)"/>
    <g>
      <path class="cls-2" d="m233.75,72.1c0,4.13-3.35,7.48-7.48,7.48s-7.48-3.35-7.48-7.48,3.35-7.48,7.48-7.48,7.48,3.35,7.48,7.48Z"/>
      <path class="cls-2" d="m115.94,51.06c0,3.58-2.9,6.49-6.49,6.49s-6.49-2.9-6.49-6.49,2.9-6.49,6.49-6.49,6.49,2.9,6.49,6.49Z"/>
      <path class="cls-2" d="m84.69,166.49c0,3.1-2.51,5.61-5.61,5.61s-5.61-2.51-5.61-5.61,2.51-5.61,5.61-5.61,5.61,2.51,5.61,5.61Z"/>
      <path class="cls-2" d="m340.25,274.9c0,4.5-3.65,8.14-8.14,8.14s-8.14-3.65-8.14-8.14,3.65-8.14,8.14-8.14,8.14,3.65,8.14,8.14Z"/>
      <path class="cls-2" d="m60.86,321.62c0,3.35-2.72,6.07-6.07,6.07s-6.07-2.72-6.07-6.07,2.72-6.07,6.07-6.07,6.07,2.72,6.07,6.07Z"/>
      <path class="cls-2" d="m184.68,296.39c0,3.61-2.93,6.54-6.54,6.54s-6.54-2.93-6.54-6.54,2.93-6.54,6.54-6.54,6.54,2.93,6.54,6.54Z"/>
      <path class="cls-2" d="m315.05,160.88c0,3.1-2.51,5.61-5.61,5.61s-5.61-2.51-5.61-5.61,2.51-5.61,5.61-5.61,5.61,2.51,5.61,5.61Z"/>
      <path class="cls-2" d="m40.76,231.91c0,2.84-2.3,5.14-5.14,5.14s-5.14-2.3-5.14-5.14,2.3-5.14,5.14-5.14,5.14,2.3,5.14,5.14Z"/>
      <path class="cls-2" d="m250.57,141.26c0,3.61-2.93,6.54-6.54,6.54s-6.54-2.93-6.54-6.54,2.93-6.54,6.54-6.54,6.54,2.93,6.54,6.54Z"/>
    </g>
  </g>
</svg>